{"asset":{"version":"2.0","generator":"GLTFExporter"},"scenes":[{"nodes":[0],"name":"AuxScene"}],"scene":0,"nodes":[{"mesh":0}],"bufferViews":[{"buffer":0,"byteOffset":0,"byteLength":444132,"target":34962,"byteStride":12},{"buffer":0,"byteOffset":444132,"byteLength":444132,"target":34962,"byteStride":12},{"buffer":0,"byteOffset":888264,"byteLength":460104,"target":34963}],"buffers":[{"byteLength":1348368,"uri":"data:application/octet-stream;base64,"}],"accessors":[{"bufferView":0,"componentType":5126,"count":37011,"max":[166.16261291503906,855.2096557617188,368.3075866699219],"min":[23.117759704589844,28.439712524414062,227.2295379638672],"type":"VEC3"},{"bufferView":1,"componentType":5126,"count":37011,"max":[1,1,1],"min":[-1,-1,-1],"type":"VEC3"},{"bufferView":2,"componentType":5125,"count":115026,"max":[37010],"min":[0],"type":"SCALAR"}],"materials":[{"pbrMetallicRoughness":{"metallicFactor":0.5,"roughnessFactor":0.5}}],"meshes":[{"primitives":[{"mode":4,"attributes":{"POSITION":0,"NORMAL":1},"indices":2,"material":0}]}]}