{"asset":{"version":"2.0","generator":"GLTFExporter"},"scenes":[{"nodes":[0],"name":"AuxScene"}],"scene":0,"nodes":[{"mesh":0}],"bufferViews":[{"buffer":0,"byteOffset":0,"byteLength":215136,"target":34962,"byteStride":12},{"buffer":0,"byteOffset":215136,"byteLength":215136,"target":34962,"byteStride":12},{"buffer":0,"byteOffset":430272,"byteLength":226056,"target":34963}],"buffers":[{"byteLength":656328,"uri":"data:application/octet-stream;base64,"}],"accessors":[{"bufferView":0,"componentType":5126,"count":17928,"max":[132.07704162597656,541.71240234375,132.076171875],"min":[0.0029578804969787598,24.822410583496094,0.0038370490074157715],"type":"VEC3"},{"bufferView":1,"componentType":5126,"count":17928,"max":[0.9999974966049194,1,0.9999971985816956],"min":[-0.9999976754188538,-1,-0.9999995827674866],"type":"VEC3"},{"bufferView":2,"componentType":5125,"count":56514,"max":[17927],"min":[0],"type":"SCALAR"}],"materials":[{"pbrMetallicRoughness":{"metallicFactor":0.5,"roughnessFactor":0.5}}],"meshes":[{"primitives":[{"mode":4,"attributes":{"POSITION":0,"NORMAL":1},"indices":2,"material":0}]}]}