{  "asset": {    "version": "2.0",    "generator": "THREE.GLTFExporter"  },  "scenes": [    {      "name": "AuxScene",      "nodes": [        1      ]    }  ],  "scene": 0,  "nodes": [    {      "mesh": 0    },    {      "children": [        0      ]    }  ],  "bufferViews": [    {      "buffer": 0,      "byteOffset": 0,      "byteLength": 1166400,      "target": 34962,      "byteStride": 12    },    {      "buffer": 0,      "byteOffset": 1166400,      "byteLength": 1166400,      "target": 34962,      "byteStride": 12    }  ],  "buffers": [    {      "byteLength": 2332800,      "uri": "data:application/octet-stream;base64,"    }  ],  "accessors": [    {      "bufferView": 0,      "componentType": 5126,      "count": 97200,      "max": [        9.184402465820312,        29.908241271972656,        9.184414863586426      ],      "min": [        -9.184403419494629,        -29.908239364624023,        -9.18441390991211      ],      "type": "VEC3"    },    {      "bufferView": 1,      "componentType": 5126,      "count": 97200,      "max": [        0.9999982118606567,        1,        0.9999998807907104      ],      "min": [        -0.9999982118606567,        -1,        -0.9999998807907104      ],      "type": "VEC3"    }  ],  "materials": [    {      "pbrMetallicRoughness": {        "baseColorFactor": [          0.5775742874986095,          0.5775742874986095,          0.5775742874986095,          1        ],        "metallicFactor": 0.5,        "roughnessFactor": 0.5      },      "doubleSided": true,      "name": "mat0"    }  ],  "meshes": [    {      "primitives": [        {          "mode": 4,          "attributes": {            "POSITION": 0,            "NORMAL": 1          },          "material": 0        }      ]    }  ]}