{"asset":{"version":"2.0","generator":"GLTFExporter"},"scenes":[{"nodes":[0],"name":"AuxScene"}],"scene":0,"nodes":[{"mesh":0}],"bufferViews":[{"buffer":0,"byteOffset":0,"byteLength":386664,"target":34962,"byteStride":12},{"buffer":0,"byteOffset":386664,"byteLength":386664,"target":34962,"byteStride":12},{"buffer":0,"byteOffset":773328,"byteLength":397488,"target":34963}],"buffers":[{"byteLength":1170816,"uri":"data:application/octet-stream;base64,"}],"accessors":[{"bufferView":0,"componentType":5126,"count":32222,"max":[429.3282775878906,939.0724487304688,1010.6014404296875],"min":[288.2502746582031,93.25244903564453,871.638427734375],"type":"VEC3"},{"bufferView":1,"componentType":5126,"count":32222,"max":[1,1,1],"min":[-0.9999999403953552,-1,-1],"type":"VEC3"},{"bufferView":2,"componentType":5125,"count":99372,"max":[32221],"min":[0],"type":"SCALAR"}],"materials":[{"pbrMetallicRoughness":{"metallicFactor":0.5,"roughnessFactor":0.5}}],"meshes":[{"primitives":[{"mode":4,"attributes":{"POSITION":0,"NORMAL":1},"indices":2,"material":0}]}]}